<?xml version="1.0" encoding="UTF-8" standalone="no"?>
<!-- Created with Inkscape (http://www.inkscape.org/) -->

<svg
   xmlns:dc="http://purl.org/dc/elements/1.1/"
   xmlns:cc="http://creativecommons.org/ns#"
   xmlns:rdf="http://www.w3.org/1999/02/22-rdf-syntax-ns#"
   xmlns:svg="http://www.w3.org/2000/svg"
   xmlns="http://www.w3.org/2000/svg"
   version="1.1"
   width="834"
   height="296.91138"
   id="svg9247">
  <defs
     id="defs9249">
    <linearGradient
       x1="-51.767601"
       y1="235.84129"
       x2="-51.767601"
       y2="253.84129"
       id="SVGID_12_"
       gradientUnits="userSpaceOnUse"
       gradientTransform="matrix(1,0,0,-1,-0.80292847,1022.6884)">
      <stop
         id="stop83"
         style="stop-color:#2397d4;stop-opacity:1"
         offset="0" />
      <stop
         id="stop85"
         style="stop-color:#65e7ff;stop-opacity:1"
         offset="1" />
    </linearGradient>
    <linearGradient
       x1="-75.768997"
       y1="249.84129"
       x2="-75.768997"
       y2="265.84329"
       id="SVGID_11_"
       gradientUnits="userSpaceOnUse"
       gradientTransform="matrix(1,0,0,-1,-0.80292847,1022.6884)">
      <stop
         id="stop76"
         style="stop-color:#2397d4;stop-opacity:1"
         offset="0" />
      <stop
         id="stop78"
         style="stop-color:#65e7ff;stop-opacity:1"
         offset="1" />
    </linearGradient>
    <linearGradient
       x1="-48.767601"
       y1="198.83839"
       x2="-48.767601"
       y2="220.8394"
       id="SVGID_10_"
       gradientUnits="userSpaceOnUse"
       gradientTransform="matrix(1,0,0,-1,-0.80292847,1022.6884)">
      <stop
         id="stop69"
         style="stop-color:#2397d4;stop-opacity:1"
         offset="0" />
      <stop
         id="stop71"
         style="stop-color:#65e7ff;stop-opacity:1"
         offset="1" />
    </linearGradient>
    <linearGradient
       x1="-70.767601"
       y1="217.8394"
       x2="-70.767601"
       y2="237.84129"
       id="SVGID_9_"
       gradientUnits="userSpaceOnUse"
       gradientTransform="matrix(1,0,0,-1,-0.80292847,1022.6884)">
      <stop
         id="stop62"
         style="stop-color:#2397d4;stop-opacity:1"
         offset="0" />
      <stop
         id="stop64"
         style="stop-color:#65e7ff;stop-opacity:1"
         offset="1" />
    </linearGradient>
    <linearGradient
       x1="-84.767601"
       y1="190.83839"
       x2="-84.767601"
       y2="214.8394"
       id="SVGID_8_"
       gradientUnits="userSpaceOnUse"
       gradientTransform="matrix(1,0,0,-1,-0.80292847,1022.6884)">
      <stop
         id="stop55"
         style="stop-color:#2397d4;stop-opacity:1"
         offset="0" />
      <stop
         id="stop57"
         style="stop-color:#65e7ff;stop-opacity:1"
         offset="1" />
    </linearGradient>
    <linearGradient
       x1="-68.768997"
       y1="67.834"
       x2="-68.769096"
       y2="193.83791"
       id="SVGID_7_"
       gradientUnits="userSpaceOnUse"
       gradientTransform="matrix(1,0,0,-1,214.5,339.5771)">
      <stop
         id="stop48"
         style="stop-color:#252d42;stop-opacity:1"
         offset="0" />
      <stop
         id="stop50"
         style="stop-color:#485e82;stop-opacity:1"
         offset="1" />
    </linearGradient>
    <linearGradient
       x1="421.94781"
       y1="169.6572"
       x2="421.94781"
       y2="191.8867"
       id="SVGID_13_"
       gradientUnits="userSpaceOnUse"
       gradientTransform="matrix(1.2857964,0,0,-1.2857964,258.25103,1168.7191)">
      <stop
         id="stop4379"
         style="stop-color:#2397d4;stop-opacity:1"
         offset="0" />
      <stop
         id="stop4381"
         style="stop-color:#65e7ff;stop-opacity:1"
         offset="1" />
    </linearGradient>
    <linearGradient
       x1="-51.767601"
       y1="235.84129"
       x2="-51.767601"
       y2="253.84129"
       id="SVGID_12_-6"
       gradientUnits="userSpaceOnUse"
       gradientTransform="matrix(1.2857964,0,0,-1.2857964,258.25103,1168.7191)">
      <stop
         id="stop4372"
         style="stop-color:#2397d4;stop-opacity:1"
         offset="0" />
      <stop
         id="stop4374"
         style="stop-color:#65e7ff;stop-opacity:1"
         offset="1" />
    </linearGradient>
    <linearGradient
       x1="-75.768997"
       y1="249.84129"
       x2="-75.768997"
       y2="265.84329"
       id="SVGID_11_-6"
       gradientUnits="userSpaceOnUse"
       gradientTransform="matrix(1.2857964,0,0,-1.2857964,258.25103,1168.7191)">
      <stop
         id="stop4365"
         style="stop-color:#2397d4;stop-opacity:1"
         offset="0" />
      <stop
         id="stop4367"
         style="stop-color:#65e7ff;stop-opacity:1"
         offset="1" />
    </linearGradient>
    <linearGradient
       x1="-48.767601"
       y1="198.83839"
       x2="-48.767601"
       y2="220.8394"
       id="SVGID_10_-9"
       gradientUnits="userSpaceOnUse"
       gradientTransform="matrix(1.2857964,0,0,-1.2857964,258.25103,1168.7191)">
      <stop
         id="stop4358"
         style="stop-color:#2397d4;stop-opacity:1"
         offset="0" />
      <stop
         id="stop4360"
         style="stop-color:#65e7ff;stop-opacity:1"
         offset="1" />
    </linearGradient>
    <linearGradient
       x1="-70.767601"
       y1="217.8394"
       x2="-70.767601"
       y2="237.84129"
       id="SVGID_9_-9"
       gradientUnits="userSpaceOnUse"
       gradientTransform="matrix(1.2857964,0,0,-1.2857964,258.25103,1168.7191)">
      <stop
         id="stop4351"
         style="stop-color:#2397d4;stop-opacity:1"
         offset="0" />
      <stop
         id="stop4353"
         style="stop-color:#65e7ff;stop-opacity:1"
         offset="1" />
    </linearGradient>
    <linearGradient
       x1="-84.767601"
       y1="190.83839"
       x2="-84.767601"
       y2="214.8394"
       id="SVGID_8_-1"
       gradientUnits="userSpaceOnUse"
       gradientTransform="matrix(1.2857964,0,0,-1.2857964,258.25103,1168.7191)">
      <stop
         id="stop4344"
         style="stop-color:#2397d4;stop-opacity:1"
         offset="0" />
      <stop
         id="stop4346"
         style="stop-color:#65e7ff;stop-opacity:1"
         offset="1" />
    </linearGradient>
    <linearGradient
       x1="-68.768997"
       y1="67.834"
       x2="-68.769096"
       y2="193.83791"
       id="SVGID_7_-5"
       gradientUnits="userSpaceOnUse"
       gradientTransform="matrix(1,0,0,-1,214.5,339.5771)">
      <stop
         id="stop4337"
         style="stop-color:#252d42;stop-opacity:1"
         offset="0" />
      <stop
         id="stop4339"
         style="stop-color:#485e82;stop-opacity:1"
         offset="1" />
    </linearGradient>
    <linearGradient
       x1="421.94781"
       y1="87.412102"
       x2="421.94781"
       y2="161.147"
       id="SVGID_6_"
       gradientUnits="userSpaceOnUse"
       gradientTransform="matrix(1.2857964,0,0,-1.2857964,258.25103,1168.7191)">
      <stop
         id="stop4328"
         style="stop-color:#252d42;stop-opacity:1"
         offset="0" />
      <stop
         id="stop4330"
         style="stop-color:#485e82;stop-opacity:1"
         offset="1" />
    </linearGradient>
    <linearGradient
       x1="89.801804"
       y1="87.414101"
       x2="89.801804"
       y2="161.1479"
       id="SVGID_5_"
       gradientUnits="userSpaceOnUse"
       gradientTransform="matrix(1.2857964,0,0,-1.2857964,258.25103,1168.7191)">
      <stop
         id="stop4321"
         style="stop-color:#252d42;stop-opacity:1"
         offset="0" />
      <stop
         id="stop4323"
         style="stop-color:#485e82;stop-opacity:1"
         offset="1" />
    </linearGradient>
    <linearGradient
       x1="363.0806"
       y1="87.414101"
       x2="363.0806"
       y2="161.14841"
       id="SVGID_4_"
       gradientUnits="userSpaceOnUse"
       gradientTransform="matrix(1.2857964,0,0,-1.2857964,258.25103,1168.7191)">
      <stop
         id="stop4314"
         style="stop-color:#252d42;stop-opacity:1"
         offset="0" />
      <stop
         id="stop4316"
         style="stop-color:#485e82;stop-opacity:1"
         offset="1" />
    </linearGradient>
    <linearGradient
       x1="481.40869"
       y1="87.414101"
       x2="481.40869"
       y2="161.147"
       id="SVGID_3_"
       gradientUnits="userSpaceOnUse"
       gradientTransform="matrix(1.2857964,0,0,-1.2857964,258.25103,1168.7191)">
      <stop
         id="stop4307"
         style="stop-color:#252d42;stop-opacity:1"
         offset="0" />
      <stop
         id="stop4309"
         style="stop-color:#485e82;stop-opacity:1"
         offset="1" />
    </linearGradient>
    <linearGradient
       x1="191.85789"
       y1="87.414101"
       x2="191.85789"
       y2="161.147"
       id="SVGID_2_"
       gradientUnits="userSpaceOnUse"
       gradientTransform="matrix(1.2857964,0,0,-1.2857964,258.25103,1168.7191)">
      <stop
         id="stop4300"
         style="stop-color:#252d42;stop-opacity:1"
         offset="0" />
      <stop
         id="stop4302"
         style="stop-color:#485e82;stop-opacity:1"
         offset="1" />
    </linearGradient>
    <linearGradient
       x1="277.86081"
       y1="84.733398"
       x2="277.86081"
       y2="162.6368"
       id="SVGID_1_"
       gradientUnits="userSpaceOnUse"
       gradientTransform="matrix(1,0,0,-1,214.5,339.5771)">
      <stop
         id="stop4293"
         style="stop-color:#252d42;stop-opacity:1"
         offset="0" />
      <stop
         id="stop4295"
         style="stop-color:#485e82;stop-opacity:1"
         offset="1" />
    </linearGradient>
  </defs>
  <metadata
     id="metadata9252">
    <rdf:RDF>
      <cc:Work
         rdf:about="">
        <dc:format>image/svg+xml</dc:format>
        <dc:type
           rdf:resource="http://purl.org/dc/dcmitype/StillImage" />
        <dc:title></dc:title>
      </cc:Work>
    </rdf:RDF>
  </metadata>
  <g
     transform="translate(-95,-491.36748)"
     id="layer1">
    <path
       d="m 791,745.27883 c -4.97059,0 -9,-4.02943 -9,-9.00003 0,-4.9705 4.02941,-8.99993 9,-8.99993 4.97048,0 9,4.02943 9,8.99993 0,4.9706 -4.02952,9.00003 -9,9.00003 z"
       id="path9360-1"
       style="fill:#2397d4;fill-opacity:1;stroke:none" />
    <g
       transform="translate(-0.20803944,7.0000505)"
       id="g5423">
      <path
         d="m 177.89056,597.12767 h -0.01 c -6.6729,0 -12.10712,-5.42671 -12.11419,-12.09501 -0.01,-6.69051 5.42514,-12.12528 12.1041,-12.13236 6.68298,0 12.1162,5.42671 12.12426,12.09501 0,6.69052 -5.42512,12.1263 -12.10408,12.13337 h 0 z"
         id="path3042-0-6-4"
         style="fill:#2397d4;fill-opacity:1" />
      <path
         d="m 210.60812,588.24494 c -6.23094,0 -11.30246,-5.06615 -11.30657,-11.29167 -0.01,-6.24198 5.06123,-11.31635 11.2963,-11.32148 6.23916,0 11.31068,5.0651 11.31683,11.29063 0,6.24197 -5.06224,11.31635 -11.29628,11.32252 h -0.01 z"
         id="path3056-6-4-1"
         style="fill:#2397d4;fill-opacity:1" />
      <path
         d="m -10,-15.700835 a 7,7 0 1 1 -14,0 7,7 0 1 1 14,0 z"
         transform="matrix(1.4421651,0,0,1.4421651,215.7232,578.60266)"
         id="path4104"
         style="fill:#2397d4;fill-opacity:1" />
      <path
         d="m 94,-16.522263 a 11.5,11.5 0 1 1 -23,0 11.5,11.5 0 1 1 23,0 z"
         transform="matrix(0.80761247,0,0,0.80761247,140.73061,552.34319)"
         id="path4106"
         style="fill:#2397d4;fill-opacity:1" />
      <path
         d="m 11,-37.522263 a 10.5,10.5 0 1 1 -21,0 10.5,10.5 0 1 1 21,0 z"
         transform="matrix(0.76915473,0,0,0.76915473,187.18756,551.30398)"
         id="path4132"
         style="fill:#2397d4;fill-opacity:1" />
    </g>
    <path
       d="m 346,632.27885 c -24,0 -42,18 -42,42 l 0,40 12,0 0,-40 c 0,-18 12,-30 30,-30 18,0 30,12 30,30 l 0,40 12,0 0,-40 c 0,-18 12,-30 30,-30 18,0 30,12 30,30 l 0,40 12,0 0,-40 c 0,-24 -18,-42 -42,-42 -15.66528,0 -28.78428,7.6868 -36,19.6874 -7.21572,-12.0006 -20.33472,-19.6874 -36,-19.6874 z"
       id="path4687-7-56-1-0-2-2-7"
       style="fill:#262f45;fill-opacity:1;stroke:none" />
    <path
       d="m 521,632.27885 c -24,0 -42,18 -42,42 0,24 18,42 42,42 12,0 22.5,-4.5 30,-12 l 0,10 12,0 0,0 0,-40 c 0,-24 -18,-42 -42,-42 z m 0,12 c 18,0 30,12 30,30 0,18 -12,30 -30,30 -18,0 -30,-12 -30,-30 0,-18 12,-30 30,-30 z"
       id="path4687-7-56-1-8"
       style="fill:#262f45;fill-opacity:1;stroke:none" />
    <path
       d="m 725,632.27885 c -24,0 -42,18 -42,42 0,24 18,42 42,42 l 0,-12 c -15.90756,0 -27.10606,-9.3968 -29.5,-24 3.5,0 65.5,0 71.125,0 0.25558,-1.9564 0.375,-3.9482 0.375,-6 0,-24 -18,-42 -42,-42 z m 0,12 c 15.90756,0 27.10606,9.397 29.5,24 l -59,0 c 2.39394,-14.603 13.59244,-24 29.5,-24 z"
       id="path4687-7-56-1-0-6-7"
       style="fill:#262f45;fill-opacity:1;stroke:none" />
    <path
       d="m 785,634.27885 c 3,0 9,0 12,0 l 0,80 c -3,0 -9,0 -12,0 z"
       id="rect4708-59-5-7-0"
       style="fill:#262f45;fill-opacity:1;stroke:none" />
    <path
       d="m 857,632.27885 c -24,0 -42,18 -42,42 0,24 18,42 42,42 12,0 22.5,-4.5 30,-12 l 0,10 12,0 0,0 0,-40 c 0,-24 -18,-42 -42,-42 z m 0,12 c 18,0 30,12 30,30 0,18 -12,30 -30,30 -18,0 -30,-12 -30,-30 0,-18 12,-30 30,-30 z"
       id="path4687-7-56-1-8-5"
       style="fill:#262f45;fill-opacity:1;stroke:none" />
    <path
       d="m 623,632.27885 c -24,0 -42,18 -42,42 0,24 18,42 42,42 12,0 22.5,-4.5 30,-12 l 0,12 c 0,18 -12,30 -30,30 l 0,12 c 24,0 42,-18 42,-42 l 0,-42 c 0,-24 -18,-42 -42,-42 z m 0,12 c 18,0 30,12 30,30 0,18 -12,30 -30,30 -18,0 -30,-12 -30,-30 0,-18 12,-30 30,-30 z"
       id="path4687-7-56-1-0-55"
       style="fill:#262f45;fill-opacity:1;stroke:none" />
    <path
       d="M 143.92581,615.04098 C 133.47541,628.58646 125,643.82201 125,662.2789 c 0,40.00634 30.35843,73 68,73 37.64044,0 68,-32.99349 68,-73 0,-18.46054 -8.48889,-33.21199 -19.53017,-47.2379 -4.14024,-4.34463 -10.11757,-3.69864 -14.46899,-0.91856 -12.73296,6.58855 -19.60609,9.22094 -34.00084,9.15646 -13.92202,-0.0624 -21.23667,-2.33602 -33.97033,-9.27735 -4.35142,-2.65919 -10.96363,-3.3052 -15.10386,1.03943 z M 153,626.2789 c 13.19828,7.29754 24.96911,11 40,11 15.0436,0 26.79494,-3.70251 40,-11 7.2055,10.15985 14,22.7579 14,36 0,32.80129 -24.17531,59 -54,59 -29.82612,0 -55,-26.19854 -55,-59 0,-13.22462 7.77879,-25.8322 15,-36 z"
       id="path3347-1"
       style="font-size:medium;font-style:normal;font-variant:normal;font-weight:normal;font-stretch:normal;text-indent:0;text-align:start;text-decoration:none;line-height:normal;letter-spacing:normal;word-spacing:normal;text-transform:none;direction:ltr;block-progression:tb;writing-mode:lr-tb;text-anchor:start;baseline-shift:baseline;color:#000000;fill:#262f45;fill-opacity:1;stroke:none;stroke-width:14;marker:none;visibility:visible;display:inline;overflow:visible;enable-background:accumulate;font-family:Sans;-inkscape-font-specification:Sans" />
  </g>
</svg>
